<?xml version="1.0" encoding="UTF-8" standalone="no"?>
<!-- Created with Inkscape (http://www.inkscape.org/) -->

<svg
   xmlns:dc="http://purl.org/dc/elements/1.1/"
   xmlns:cc="http://creativecommons.org/ns#"
   xmlns:rdf="http://www.w3.org/1999/02/22-rdf-syntax-ns#"
   xmlns:svg="http://www.w3.org/2000/svg"
   xmlns="http://www.w3.org/2000/svg"
   xmlns:sodipodi="http://sodipodi.sourceforge.net/DTD/sodipodi-0.dtd"
   xmlns:inkscape="http://www.inkscape.org/namespaces/inkscape"
   version="1.1"
   id="svg2"
   xml:space="preserve"
   width="300"
   height="283"
   viewBox="0 0 300 282.99999"
   sodipodi:docname="Ministry of Industry and Information Technology of P.R.China (MIIT) logo.svg"
   inkscape:version="0.92.1 r15371"><metadata
     id="metadata8"><rdf:RDF><cc:Work
         rdf:about=""><dc:format>image/svg+xml</dc:format><dc:type
           rdf:resource="http://purl.org/dc/dcmitype/StillImage" /><dc:title></dc:title></cc:Work></rdf:RDF></metadata><defs
     id="defs6"><linearGradient
       x1="0"
       y1="0"
       x2="1"
       y2="0"
       gradientUnits="userSpaceOnUse"
       gradientTransform="matrix(-7.186449e-6,-163.97906,-163.97906,7.186449e-6,104.39902,189.50894)"
       spreadMethod="pad"
       id="linearGradient30"><stop
         style="stop-opacity:1;stop-color:#ea3d00"
         offset="0"
         id="stop24" /><stop
         style="stop-opacity:1;stop-color:#e96a01"
         offset="0.591398"
         id="stop26" /><stop
         style="stop-opacity:1;stop-color:#e7230d"
         offset="1"
         id="stop28" /></linearGradient><linearGradient
       x1="0"
       y1="0"
       x2="1"
       y2="0"
       gradientUnits="userSpaceOnUse"
       gradientTransform="matrix(212.00009,162.99991,162.99991,-212.00009,279.2334,368.59863)"
       spreadMethod="pad"
       id="linearGradient50"><stop
         style="stop-opacity:1;stop-color:#0896c9"
         offset="0"
         id="stop46" /><stop
         style="stop-opacity:1;stop-color:#005698"
         offset="1"
         id="stop48" /></linearGradient><clipPath
       clipPathUnits="userSpaceOnUse"
       id="clipPath60"><path
         d="M 0,841.89 H 595.28 V 0 H 0 Z"
         id="path58"
         inkscape:connector-curvature="0" /></clipPath></defs><sodipodi:namedview
     pagecolor="#ffffff"
     bordercolor="#666666"
     borderopacity="1"
     objecttolerance="10"
     gridtolerance="10"
     guidetolerance="10"
     inkscape:pageopacity="0"
     inkscape:pageshadow="2"
     inkscape:window-width="1600"
     inkscape:window-height="838"
     id="namedview4"
     showgrid="false"
     inkscape:zoom="0.84096495"
     inkscape:cx="465.47679"
     inkscape:cy="207.65203"
     inkscape:window-x="-8"
     inkscape:window-y="-8"
     inkscape:window-maximized="1"
     inkscape:current-layer="g22" /><g
     id="g10"
     inkscape:groupmode="layer"
     inkscape:label="工信部"
     transform="matrix(1.3333333,0,0,-1.3333333,0,282.99998)"><g
       id="g12"><g
         id="g14"><g
           id="g20"><g
             id="g22"><path
               d="M 27.77244,131.48502 C 11.935635,76.122738 49.331784,23.688281 106.82338,23.688281 v 0 c 57.49157,0 77.85319,51.369805 77.85319,51.369805 v 0 C 161.7864,48.707768 123.45866,41.122068 94.446706,53.897979 v 0 C 65.434755,66.673888 48.66637,105.00161 68.229484,137.20756 v 0 c 19.563113,32.20594 64.046696,35.38022 73.594536,21.42626 v 0 c 8.37783,-12.24358 8.37783,-34.33525 -9.44884,-44.44952 v 0 c -14.83388,-8.41665 -30.16551,-3.22325 -33.00442,1.597 v 0 c -3.700224,6.28149 4.79096,20.62777 4.79096,20.62777 v 0 C 78.698811,121.81419 77.811416,90.850706 111.52544,94.754283 v 0 c 33.71401,3.903567 59.97596,27.326077 59.97596,49.506647 v 0 c 0,22.18005 -28.03619,44.36062 -62.81488,44.36062 v 0 c -34.778681,0 -70.536855,-20.85987 -80.91408,-57.13653"
               style="fill:url(#linearGradient30);stroke:none;stroke-width:0.53232956"
               id="path32"
               inkscape:connector-curvature="0" /></g></g></g></g><g
       id="g34"
       transform="matrix(0.53232956,0,0,0.53232956,-48.350693,-114.98357)"><g
         id="g36"><g
           id="g42"><g
             id="g44"><path
               d="m 413.334,529.666 c 0,0 51,-11.999 46,-42.666 v 0 c -5,-30.667 -47.27,-74.499 -113.667,-99.333 v 0 C 291.75,367.5 244,383 242.666,413.667 v 0 c -0.649,14.935 2.313,22.639 4.405,26.154 v 0 C 241.154,431.634 224.792,404.992 244,383 v 0 c 23,-26.333 98.667,-33.333 175.333,3.667 v 0 c 76.666,37 111.334,93 82.001,124.333 v 0 c -16.22,17.327 -41.405,21.199 -60.685,21.198 v 0 c -15.586,0 -27.315,-2.532 -27.315,-2.532 M 247.071,439.821 c 1.168,1.616 1.929,2.513 1.929,2.513 v 0 c 0,0 -0.848,-0.698 -1.929,-2.513"
               style="fill:url(#linearGradient50);stroke:none"
               id="path52"
               inkscape:connector-curvature="0" /></g></g></g></g><g
       id="g54"
       transform="matrix(0.53232956,0,0,0.53232956,-48.350693,-114.98357)"><g
         id="g56"
         clip-path="url(#clipPath60)"><g
           id="g62"
           transform="translate(250.3335,612.5)"><path
             d="m 0,0 -29.667,-7.167 0.728,-40.892 c 15.819,7.124 32.765,11.969 50.04,14.297 z"
             style="fill:#dc2e0a;fill-opacity:1;fill-rule:nonzero;stroke:none"
             id="path64"
             inkscape:connector-curvature="0" /></g><g
           id="g66"
           transform="translate(403.7803,534.5073)"><path
             d="m 0,0 12.387,36.659 -25.167,18 -27.968,-24.019 c 7.566,-3.651 14.732,-7.922 21.377,-12.788 C -11.91,12.387 -5.424,6.377 0,0"
             style="fill:#dc2e0a;fill-opacity:1;fill-rule:nonzero;stroke:none"
             id="path68"
             inkscape:connector-curvature="0" /></g><g
           id="g70"
           transform="translate(106.5,339.999)"><path
             d="m 0,0 14.083,-27.5 34.574,7.717 C 38.645,-5.261 31.158,10.639 26.304,27.395 Z"
             style="fill:#dc2e0a;fill-opacity:1;fill-rule:nonzero;stroke:none"
             id="path72"
             inkscape:connector-curvature="0" /></g><g
           id="g74"
           transform="translate(196.2529,550.5352)"><path
             d="M 0,0 C 2.358,1.576 4.763,3.088 7.202,4.547 L -24.586,25.631 -48.253,6.298 -33.122,-29.314 C -23.742,-18.299 -12.65,-8.457 0,0"
             style="fill:#dc2e0a;fill-opacity:1;fill-rule:nonzero;stroke:none"
             id="path76"
             inkscape:connector-curvature="0" /></g><g
           id="g78"
           transform="translate(315.5,217.999)"><path
             d="M 0,0 30.834,4.667 34.22,42.505 C 19.657,37.185 3.077,33.558 -15.612,32.71 -11.389,23.663 0,0 0,0"
             style="fill:#dc2e0a;fill-opacity:1;fill-rule:nonzero;stroke:none"
             id="path80"
             inkscape:connector-curvature="0" /></g><g
           id="g82"
           transform="translate(235,223.832)"><path
             d="M 0,0 C 0.5,-0.333 29.833,-7.333 29.833,-7.333 L 46.595,26.938 C 28.407,27.935 10.924,31.674 -5.345,37.904 -4.016,27.705 -0.407,0.271 0,0"
             style="fill:#dc2e0a;fill-opacity:1;fill-rule:nonzero;stroke:none"
             id="path84"
             inkscape:connector-curvature="0" /></g><g
           id="g86"
           transform="translate(344.541,572.5645)"><path
             d="M 0,0 -4.874,37.269 -35.208,42.102 -51.617,7.749 c 0.692,0.008 1.384,0.02 2.076,0.02 C -32.412,7.769 -15.628,5.09 0,0"
             style="fill:#dc2e0a;fill-opacity:1;fill-rule:nonzero;stroke:none"
             id="path88"
             inkscape:connector-curvature="0" /></g><g
           id="g90"
           transform="translate(372.9883,271.1924)"><path
             d="M 0,0 C 7.134,-5.988 29.512,-23.193 29.512,-23.193 L 54.846,-4.859 41.187,32.587 C 40.586,31.94 39.983,31.294 39.365,30.647 29.556,20.386 16.529,9.262 0,0"
             style="fill:#dc2e0a;fill-opacity:1;fill-rule:nonzero;stroke:none"
             id="path92"
             inkscape:connector-curvature="0" /></g><g
           id="g94"
           transform="translate(151.6758,505.8789)"><path
             d="m 0,0 c -9.609,1.166 -36.676,4.621 -36.676,4.621 l -13.166,-28 29.328,-25.315 c 0.677,2.857 1.408,5.713 2.224,8.566 C -14.182,-25.767 -8.024,-12.318 0,0"
             style="fill:#dc2e0a;fill-opacity:1;fill-rule:nonzero;stroke:none"
             id="path96"
             inkscape:connector-curvature="0" /></g><g
           id="g98"
           transform="translate(127.541,437.1367)"><path
             d="m 0,0 c -10.201,-3.126 -34.374,-10.576 -34.374,-10.97 v -30.5 L 1.111,-51.742 C -1.795,-34.956 -2.186,-17.546 0,0"
             style="fill:#dc2e0a;fill-opacity:1;fill-rule:nonzero;stroke:none"
             id="path100"
             inkscape:connector-curvature="0" /></g><g
           id="g102"
           transform="translate(169.416,302.3848)"><path
             d="m 0,0 c -3.983,-9.307 -12.749,-30.552 -12.749,-30.552 l 22.5,-21.333 29.918,20.807 C 24.918,-22.918 11.542,-12.479 0,0"
             style="fill:#dc2e0a;fill-opacity:1;fill-rule:nonzero;stroke:none"
             id="path104"
             inkscape:connector-curvature="0" /></g></g></g></g></svg>